<svg xmlns="http://www.w3.org/2000/svg" viewBox="0 0 48 48" aria-labelledby="IconBase-title-v-0-0-0-0-0-0-5-0-0-0-0-2-1-2-0-0 IconBase-description-v-0-0-0-0-0-0-5-0-0-0-0-2-1-2-0-0" role="graphics-symbol img" width="100%" height="100%" class="ApprenticeshipMarketing-howItWorksIcon-vJn" fill="none" data-iid="v-0-0-0-0-0-0-5-0-0-0-0-2-1-2-0-0"><title id="IconBase-title-v-0-0-0-0-0-0-5-0-0-0-0-2-1-2-0-0">baseIcon</title><desc id="IconBase-description-v-0-0-0-0-0-0-5-0-0-0-0-2-1-2-0-0">baseIcon</desc><g><!--[--><path d="M12.6604 42.5312L9.45789 43.1725L3.19727 11.9181L27.0979 7.13123L28.8979 16.1162" stroke="#EB1000" stroke-width="3" stroke-linecap="round" stroke-linejoin="round"></path><path d="M20.1191 15.1168L23.9498 14.35" stroke="#EB1000" stroke-width="3" stroke-linecap="round" stroke-linejoin="round"></path><path d="M9.94141 16.7295L15.1627 15.6838L16.2084 20.9052L10.9871 21.9508L9.94141 16.7295Z" stroke="#EB1000" stroke-width="3" stroke-linecap="round" stroke-linejoin="round"></path><path d="M10.5059 10.4538L10.7946 2.89001L35.1527 3.82001L34.6615 16.6656" stroke="#EB1000" stroke-width="3" stroke-linecap="round" stroke-linejoin="round"></path><path d="M19.6133 25.8005H42.9289C42.9289 25.8005 44.8039 25.8005 44.8039 27.6755V42.2349C44.8039 42.2349 44.8039 44.1099 42.9289 44.1099H19.6133C19.6133 44.1099 17.7383 44.1099 17.7383 42.2349V27.6755C17.7383 27.6755 17.7383 25.8005 19.6133 25.8005Z" stroke="#EB1000" stroke-width="3" stroke-linecap="round" stroke-linejoin="round"></path><path d="M17.7383 33.76H44.8039" stroke="#EB1000" stroke-width="3" stroke-linecap="round" stroke-linejoin="round"></path><path d="M31.2695 32.1682V36.1488" stroke="#EB1000" stroke-width="3" stroke-linecap="round" stroke-linejoin="round"></path><path d="M28.3691 21.61H34.1723C34.6695 21.61 35.1465 21.8075 35.4981 22.1592C35.8497 22.5108 36.0473 22.9877 36.0473 23.485V25.8006H26.4941V23.485C26.4941 22.9877 26.6917 22.5108 27.0433 22.1592C27.3949 21.8075 27.8719 21.61 28.3691 21.61Z" stroke="#EB1000" stroke-width="3" stroke-linecap="round" stroke-linejoin="round"></path><!--]--></g></svg>