<svg data-iid="v-1-19" xmlns="http://www.w3.org/2000/svg" viewBox="0 0 494 32" aria-labelledby="IconBase-title-v-1-19 IconBase-description-v-1-19" role="graphics-symbol img" width="100%" height="100%"><title id="IconBase-title-v-1-19">Adobe Creative Apprenticeship</title><desc id="IconBase-description-v-1-19"></desc><g><path d="M10.4495 1.30248H17.7771L28.1168 26.2005H20.3775L13.832 9.65895L9.51636 20.5107H14.6485L16.6931 26.1937H0L10.4495 1.30248ZM36.7481 6.46444C37.4891 6.46444 38.3124 6.53984 39.1289 6.72493V0.555267H45.5989V25.0831C44.1101 25.7549 40.9128 26.5707 37.7155 26.5707C31.911 26.5707 26.9299 23.2596 26.9299 16.6855C26.9299 10.1114 31.7258 6.46444 36.7481 6.46444ZM37.5714 21.2579C38.1684 21.2579 38.6486 21.1482 39.1358 20.9974V11.9692C38.6555 11.7841 38.1684 11.7087 37.5371 11.7087C35.4171 11.7087 33.4479 13.2716 33.4479 16.5758C33.4479 19.88 35.4582 21.2579 37.5783 21.2579H37.5714ZM57.1325 6.46444C62.5253 6.46444 67.1017 10.1045 67.1017 16.5004C67.1017 22.8963 62.5253 26.5364 57.1325 26.5364C51.7396 26.5364 47.129 22.8963 47.129 16.5004C47.129 10.1045 51.6642 6.46444 57.1325 6.46444ZM57.1325 21.1482C58.9918 21.1482 60.7002 19.6607 60.7002 16.5004C60.7002 13.3402 58.9918 11.8526 57.1325 11.8526C55.2731 11.8526 53.599 13.3402 53.599 16.5004C53.599 19.6607 55.1976 21.1482 57.1325 21.1482ZM68.666 0.555267H75.1772V6.72493C75.9594 6.57412 76.7758 6.46444 77.5923 6.46444C82.6489 6.46444 87.3351 9.77549 87.3351 16.2399C87.3351 23.0814 82.3539 26.5364 76.4396 26.5364C73.9079 26.5364 70.6763 26.0154 68.666 25.09V0.555267ZM76.5906 21.2237C78.8204 21.2237 80.8651 19.6264 80.8651 16.3153C80.8651 13.2305 78.8548 11.7841 76.7004 11.7841C76.1034 11.7841 75.6232 11.8595 75.1772 12.0446V20.9632C75.5477 21.114 76.0348 21.2237 76.5906 21.2237ZM98.3883 6.46444C103.26 6.46444 107.726 9.58355 107.726 15.8698C107.726 16.7267 107.692 17.5424 107.575 18.3582H95.4518C96.1242 20.5518 98.059 21.5938 100.474 21.5938C102.443 21.5938 104.268 21.114 106.313 20.2159V25.1585C104.419 26.1251 102.148 26.5364 99.8017 26.5364C93.6267 26.5364 88.8308 22.8209 88.8308 16.5004C88.8308 10.1799 93.1807 6.46444 98.3883 6.46444ZM101.661 14.3068C101.325 12.1885 99.9115 11.3316 98.4638 11.3316C97.0161 11.3316 95.8223 12.2228 95.342 14.3068H101.668H101.661Z" fill="#EB1000"></path><path d="M135.92 2.00856L135.81 8.25364C134.245 7.25278 132.462 6.76606 130.081 6.76606C125.69 6.76606 123.233 9.70008 123.233 13.5321C123.233 18.2142 126.06 20.7027 130.266 20.7027C132.311 20.7027 134.136 20.4422 136.029 19.4002L136.064 25.4944C134.65 26.2005 132.606 26.6461 129.443 26.6804C119.961 26.7146 115.789 20.5107 115.789 13.635C115.789 7.35561 120.441 0.884313 129.552 0.815761C132.269 0.781485 134.575 1.18594 135.913 2.00171L135.92 2.00856Z" fill="#EB1000"></path><path d="M146.225 6.46445C147.748 6.46445 148.976 6.64954 149.539 6.83463V11.8869C149.093 11.7772 148.235 11.7018 147.529 11.7018C146.149 11.7018 145.374 11.8115 144.667 12.072V26.1937H138.156V8.10284C140.503 7.06085 142.842 6.46445 146.225 6.46445Z" fill="#EB1000"></path><path d="M168.625 15.9451C168.625 16.8363 168.55 17.8029 168.44 18.5433H156.275C157.016 20.401 158.807 21.2922 161.592 21.2922C163.603 21.2922 165.352 20.922 167.095 20.1062L167.17 25.2751C165.277 26.2416 163.225 26.5775 160.584 26.5775C154.073 26.5775 149.723 22.9717 149.723 16.4319C149.723 10.4473 153.887 6.47128 159.397 6.47128C164.906 6.47128 168.625 10.1114 168.625 15.9451ZM162.567 14.3068C162.416 12.5587 161.339 11.3316 159.445 11.3316C157.551 11.3316 156.467 12.2982 156.062 14.3068H162.574H162.567Z" fill="#EB1000"></path><path d="M177.614 26.5707C172.818 26.5707 169.059 24.5621 169.059 20.1063C169.059 15.6504 172.928 13.9709 177.388 13.9709C178.431 13.9709 179.282 14.0463 179.995 14.156V13.9297C179.995 12.6273 178.952 11.7018 176.352 11.7018C174.602 11.7018 172.633 12.1474 170.774 12.8878L170.74 7.68467C172.674 6.94431 174.87 6.49872 177.395 6.49872C183.048 6.49872 186.246 9.02828 186.246 14.7112V24.8569C183.831 25.9743 181.072 26.5639 177.614 26.5639V26.5707ZM178.026 21.9297C178.843 21.9297 179.474 21.8201 179.995 21.5938V18.3993C179.549 18.2485 178.952 18.1388 178.095 18.1388C176.421 18.1388 175.234 18.6187 175.234 19.9623C175.234 21.3059 176.386 21.9297 178.026 21.9297Z" fill="#EB1000"></path><path d="M198.018 21.2237C198.43 21.2237 199.02 21.1483 199.582 20.9632L199.617 26.0908C198.8 26.3856 197.908 26.5707 196.234 26.5707C191.994 26.5707 189.503 24.5621 189.503 19.8046V12.1474H186.711V6.97858H189.503V2.15253L196.015 2.11826V6.98544H199.582V12.1542H196.015V18.7695C196.015 20.5518 196.756 21.2237 198.025 21.2237H198.018Z" fill="#EB1000"></path><path d="M208.084 2.93402C208.084 4.71637 206.821 5.94344 204.701 5.94344C202.581 5.94344 201.277 4.7575 201.277 2.93402C201.277 1.11054 202.656 0 204.701 0C206.746 0 208.084 1.18595 208.084 2.93402ZM201.463 6.80034H207.974V26.2005H201.463V6.80034Z" fill="#EB1000"></path><path d="M218.924 19.4756C219.967 15.3145 221.305 10.6667 222.492 6.80035H229.113L222.643 26.2005H214.979L208.434 6.80035H215.315C216.468 10.557 217.847 15.2734 218.924 19.4756Z" fill="#EB1000"></path><path d="M247.014 15.9451C247.014 16.8363 246.938 17.8029 246.828 18.5433H234.664C235.405 20.401 237.195 21.2922 239.981 21.2922C241.991 21.2922 243.741 20.922 245.484 20.1062L245.559 25.2751C243.665 26.2416 241.614 26.5775 238.972 26.5775C232.461 26.5775 228.111 22.9717 228.111 16.4319C228.111 10.4473 232.276 6.47128 237.785 6.47128C243.295 6.47128 247.014 10.1114 247.014 15.9451ZM240.955 14.3068C240.804 12.5587 239.727 11.3316 237.834 11.3316C235.94 11.3316 234.856 12.2982 234.451 14.3068H240.962H240.955Z" fill="#EB1000"></path><path d="M279.604 26.1662H272.311L271.083 22.4096H261.745L260.517 26.1662H253.525L262.712 1.34363H270.671L279.598 26.1662H279.604ZM269.148 16.5004L266.431 8.13711L263.714 16.5004H269.148Z" fill="#EB1000"></path><path d="M288.531 6.46445C294.075 6.46445 299.056 9.21338 299.056 16.3153C299.056 23.4173 293.848 26.5364 288.346 26.5364C287.858 26.5364 287.344 26.5021 286.898 26.461V32H280.387V7.95202C282.322 7.21166 285.67 6.46445 288.531 6.46445ZM288.572 21.2922C290.726 21.2922 292.551 19.9554 292.551 16.425C292.551 12.8946 290.617 11.7429 288.606 11.7429C288.009 11.7429 287.419 11.7772 286.898 11.928V21.0728C287.31 21.2237 288.051 21.2991 288.572 21.2991V21.2922Z" fill="#EB1000"></path><path d="M308.627 6.46445C314.17 6.46445 319.151 9.21338 319.151 16.3153C319.151 23.4173 313.944 26.5364 308.441 26.5364C307.954 26.5364 307.44 26.5021 306.994 26.461V32H300.482V7.95202C302.417 7.21166 305.765 6.46445 308.627 6.46445ZM308.661 21.2922C310.815 21.2922 312.64 19.9554 312.64 16.425C312.64 12.8946 310.705 11.7429 308.695 11.7429C308.098 11.7429 307.508 11.7772 306.987 11.928V21.0728C307.398 21.2237 308.139 21.2991 308.661 21.2991V21.2922Z" fill="#EB1000"></path><path d="M328.647 6.46445C330.17 6.46445 331.398 6.64954 331.961 6.83463V11.8869C331.515 11.7772 330.657 11.7018 329.95 11.7018C328.571 11.7018 327.796 11.8115 327.089 12.072V26.1937H320.578V8.10284C322.925 7.06085 325.264 6.46445 328.647 6.46445Z" fill="#EB1000"></path><path d="M351.049 15.9451C351.049 16.8363 350.973 17.8029 350.864 18.5433H338.699C339.44 20.401 341.231 21.2922 344.016 21.2922C346.027 21.2922 347.776 20.922 349.519 20.1062L349.594 25.2751C347.694 26.2416 345.649 26.5775 343.008 26.5775C336.496 26.5775 332.146 22.9717 332.146 16.4319C332.146 10.4473 336.311 6.47128 341.821 6.47128C347.33 6.47128 351.042 10.1114 351.042 15.9451H351.049ZM344.984 14.3068C344.833 12.5587 343.755 11.3316 341.862 11.3316C339.968 11.3316 338.884 12.2982 338.479 14.3068H344.99H344.984Z" fill="#EB1000"></path><path d="M370.657 26.2005H364.146V14.8621C364.146 12.7781 363.329 11.7018 361.285 11.7018C360.393 11.7018 359.762 11.8115 359.089 12.1131V26.2005H352.578V8.32221C355.069 7.24594 358.341 6.43018 361.916 6.43018C367.611 6.43018 370.657 9.25451 370.657 14.4919V26.2005Z" fill="#EB1000"></path><path d="M382.452 21.2237C382.863 21.2237 383.453 21.1483 384.016 20.9632L384.05 26.0908C383.234 26.3856 382.342 26.5707 380.668 26.5707C376.428 26.5707 373.937 24.5621 373.937 19.8046V12.1474H371.145V6.97858H373.937V2.15253L380.448 2.11826V6.98544H384.016V12.1542H380.448V18.7695C380.448 20.5518 381.189 21.2237 382.458 21.2237H382.452Z" fill="#EB1000"></path><path d="M392.517 2.93402C392.517 4.71637 391.255 5.94344 389.135 5.94344C387.015 5.94344 385.711 4.7575 385.711 2.93402C385.711 1.11054 387.09 0 389.135 0C391.179 0 392.517 1.18595 392.517 2.93402ZM385.896 6.80034H392.407V26.2005H385.896V6.80034Z" fill="#EB1000"></path><path d="M405.122 11.7087C402.405 11.7087 400.326 13.3471 400.326 16.4662C400.326 19.5853 402.37 21.2237 405.163 21.2237C406.871 21.2237 407.99 20.9632 409.108 20.3668V25.6795C407.729 26.3102 406.13 26.5707 404.127 26.5707C397.952 26.5707 393.787 22.5947 393.787 16.5004C393.787 10.4062 398.549 6.46445 404.278 6.46445C406.247 6.46445 407.811 6.64954 409.115 7.28021V12.6341C407.962 12.0034 406.659 11.7018 405.135 11.7018L405.122 11.7087Z" fill="#EB1000"></path><path d="M428.703 15.9451C428.703 16.8363 428.628 17.8029 428.518 18.5433H416.353C417.094 20.401 418.885 21.2922 421.67 21.2922C423.681 21.2922 425.43 20.922 427.173 20.1062L427.249 25.2751C425.348 26.2416 423.303 26.5775 420.662 26.5775C414.151 26.5775 409.801 22.9717 409.801 16.4319C409.801 10.4473 413.965 6.47128 419.475 6.47128C424.984 6.47128 428.696 10.1114 428.696 15.9451H428.703ZM422.645 14.3068C422.494 12.5587 421.417 11.3316 419.523 11.3316C417.629 11.3316 416.545 12.2982 416.14 14.3068H422.652H422.645Z" fill="#EB1000"></path><path d="M443.488 7.50643L443.454 13.0043C442.151 12.2228 439.584 11.5167 437.91 11.5167C436.682 11.5167 436.202 11.8869 436.202 12.449C436.202 13.1208 436.799 13.3059 438.583 13.8612C442.041 14.9032 444.943 16.0137 444.943 20.0651C444.943 24.1165 441.78 26.5296 436.833 26.5296C434.226 26.5296 431.777 26.084 429.766 24.9666L429.8 19.2082C431.77 20.5107 434.528 21.3265 436.421 21.3265C437.725 21.3265 438.322 20.9563 438.322 20.2845C438.322 19.5441 437.506 19.2425 435.941 18.7626C432.929 17.8715 429.615 16.6444 429.615 12.7027C429.615 8.76093 432.929 6.49872 437.725 6.49872C439.996 6.49872 441.855 6.79349 443.488 7.49958V7.50643Z" fill="#EB1000"></path><path d="M464.325 26.2005H457.814V14.6769C457.814 12.7095 456.881 11.6675 455.097 11.6675C454.239 11.6675 453.423 11.8937 452.826 12.2639V26.2005H446.314V0.520996H452.826V7.13625C453.944 6.69066 455.206 6.46444 456.846 6.46444C461.052 6.46444 464.325 8.80891 464.325 14.3822V26.2005Z" fill="#EB1000"></path><path d="M473.156 2.93402C473.156 4.71637 471.893 5.94344 469.773 5.94344C467.653 5.94344 466.35 4.7575 466.35 2.93402C466.35 1.11054 467.729 0 469.773 0C471.818 0 473.156 1.18595 473.156 2.93402ZM466.535 6.80034H473.046V26.2005H466.535V6.80034Z" fill="#EB1000"></path><path d="M483.474 6.46445C489.018 6.46445 493.999 9.21338 493.999 16.3153C493.999 23.4173 488.792 26.5364 483.289 26.5364C482.809 26.5364 482.287 26.5021 481.841 26.461V32H475.33V7.95202C477.265 7.21166 480.613 6.46445 483.474 6.46445ZM483.509 21.2922C485.663 21.2922 487.488 19.9554 487.488 16.425C487.488 12.8946 485.553 11.7429 483.543 11.7429C482.946 11.7429 482.356 11.7772 481.834 11.928V21.0728C482.246 21.2237 482.987 21.2991 483.509 21.2991V21.2922Z" fill="#EB1000"></path></g></svg>