<svg xmlns="http://www.w3.org/2000/svg" viewBox="0 0 48 49" aria-labelledby="IconBase-title-v-0-0-0-0-0-0-5-0-0-0-1-0-1-0-0-0 IconBase-description-v-0-0-0-0-0-0-5-0-0-0-1-0-1-0-0-0" role="graphics-symbol img" width="100%" height="100%" class="Overview-listItemIcon-P07" fill="none" data-iid="v-0-0-0-0-0-0-5-0-0-0-1-0-1-0-0-0"><title id="IconBase-title-v-0-0-0-0-0-0-5-0-0-0-1-0-1-0-0-0">BookmarkedBook</title><desc id="IconBase-description-v-0-0-0-0-0-0-5-0-0-0-1-0-1-0-0-0"></desc><g><!--[--><path d="M24 9.41516V42.5689" stroke="#E31418" stroke-width="3" stroke-linecap="round" stroke-linejoin="round"></path><path d="M30.5438 7.7783C28.6607 8.09594 26.811 8.58677 25.0181 9.24455C24.3604 9.47993 23.6415 9.47993 22.9838 9.24455C17.2267 6.98819 10.8543 6.85525 5.00815 8.86955C4.39755 9.06328 3.86459 9.44657 3.48663 9.96378C3.10866 10.481 2.90538 11.1052 2.90627 11.7458V38.6277C2.90446 39.0881 3.00818 39.5428 3.20947 39.9569C3.41076 40.3709 3.70426 40.7334 4.06745 41.0163C4.43063 41.2993 4.85383 41.4953 5.30455 41.5893C5.75527 41.6832 6.22153 41.6726 6.66752 41.5583C12.051 40.0509 17.7798 40.3459 22.98 42.3983C23.6374 42.6352 24.357 42.6352 25.0144 42.3983C30.2145 40.3455 35.9434 40.0505 41.3269 41.5583C41.7722 41.6721 42.2377 41.6825 42.6877 41.5888C43.1377 41.4951 43.5603 41.2998 43.9233 41.0177C44.2862 40.7356 44.5798 40.3743 44.7817 39.9614C44.9836 39.5485 45.0884 39.0948 45.0881 38.6352V11.7458C45.0878 11.1072 44.8846 10.4852 44.5079 9.96957C44.1311 9.45395 43.6002 9.07137 42.9919 8.87705C41.5416 8.41098 40.0597 8.05004 38.5575 7.79705" stroke="#E31418" stroke-width="3" stroke-linecap="round" stroke-linejoin="round"></path><path d="M38.7656 22.9227L34.5469 18.7039L30.3281 22.9227V8.86017C30.3281 8.11425 30.6244 7.39888 31.1519 6.87143C31.6793 6.34398 32.3947 6.04767 33.1406 6.04767H35.9531C36.699 6.04767 37.4144 6.34398 37.9419 6.87143C38.4693 7.39888 38.7656 8.11425 38.7656 8.86017V22.9227Z" stroke="#E31418" stroke-width="3" stroke-linecap="round" stroke-linejoin="round"></path><!--]--></g></svg>