<svg xmlns="http://www.w3.org/2000/svg" viewBox="0 0 48 49" aria-labelledby="IconBase-title-v-0-0-0-0-0-0-5-0-0-0-1-0-2-0-0-0 IconBase-description-v-0-0-0-0-0-0-5-0-0-0-1-0-2-0-0-0" role="graphics-symbol img" width="100%" height="100%" class="Overview-listItemIcon-P07" fill="none" data-iid="v-0-0-0-0-0-0-5-0-0-0-1-0-2-0-0-0"><title id="IconBase-title-v-0-0-0-0-0-0-5-0-0-0-1-0-2-0-0-0">BriefcaseWithDocuments</title><desc id="IconBase-description-v-0-0-0-0-0-0-5-0-0-0-1-0-2-0-0-0"></desc><g><!--[--><path d="M12.6599 42.8395L9.4574 43.4808L3.19678 12.2264L27.0974 7.43951L28.8974 16.4245" stroke="#E31418" stroke-width="3" stroke-linecap="round" stroke-linejoin="round"></path><path d="M20.1187 15.4251L23.9493 14.6583" stroke="#E31418" stroke-width="3" stroke-linecap="round" stroke-linejoin="round"></path><path d="M9.94238 17.0378L15.1637 15.9921L16.2094 21.2134L10.9881 22.2591L9.94238 17.0378Z" stroke="#E31418" stroke-width="3" stroke-linecap="round" stroke-linejoin="round"></path><path d="M10.5059 10.7621L10.7946 3.1983L35.1527 4.1283L34.6615 16.9739" stroke="#E31418" stroke-width="3" stroke-linecap="round" stroke-linejoin="round"></path><path d="M19.6123 26.1089H42.9279C42.9279 26.1089 44.8029 26.1089 44.8029 27.9839V42.5433C44.8029 42.5433 44.8029 44.4183 42.9279 44.4183H19.6123C19.6123 44.4183 17.7373 44.4183 17.7373 42.5433V27.9839C17.7373 27.9839 17.7373 26.1089 19.6123 26.1089Z" stroke="#E31418" stroke-width="3" stroke-linecap="round" stroke-linejoin="round"></path><path d="M17.7373 34.0683H44.8029" stroke="#E31418" stroke-width="3" stroke-linecap="round" stroke-linejoin="round"></path><path d="M31.2695 32.4764V36.4571" stroke="#E31418" stroke-width="3" stroke-linecap="round" stroke-linejoin="round"></path><path d="M28.3687 21.9183H34.1718C34.6691 21.9183 35.146 22.1158 35.4976 22.4674C35.8492 22.8191 36.0468 23.296 36.0468 23.7933V26.1089H26.4937V23.7933C26.4937 23.296 26.6912 22.8191 27.0428 22.4674C27.3945 22.1158 27.8714 21.9183 28.3687 21.9183Z" stroke="#E31418" stroke-width="3" stroke-linecap="round" stroke-linejoin="round"></path><!--]--></g></svg>