<svg xmlns="http://www.w3.org/2000/svg" viewBox="0 0 48 48" aria-labelledby="IconBase-title-v-0-0-0-0-0-0-5-0-0-0-0-2-1-1-0-0 IconBase-description-v-0-0-0-0-0-0-5-0-0-0-0-2-1-1-0-0" role="graphics-symbol img" width="100%" height="100%" class="ApprenticeshipMarketing-howItWorksIcon-vJn" fill="none" data-iid="v-0-0-0-0-0-0-5-0-0-0-0-2-1-1-0-0"><title id="IconBase-title-v-0-0-0-0-0-0-5-0-0-0-0-2-1-1-0-0">baseIcon</title><desc id="IconBase-description-v-0-0-0-0-0-0-5-0-0-0-0-2-1-1-0-0">baseIcon</desc><g><!--[--><path d="M29.7989 24.1429C30.2427 24.726 30.8206 25.1935 31.4836 25.5055C32.1464 25.8175 32.8748 25.965 33.607 25.9354C35.9395 25.9354 37.8333 24.516 37.8333 22.7648C37.8333 21.0135 35.9395 19.5961 33.607 19.5961C31.2745 19.5961 29.3789 18.1748 29.3789 16.4236C29.3789 14.6723 31.2727 13.2529 33.607 13.2529C34.3392 13.2235 35.0677 13.3711 35.7305 13.6831C36.3935 13.9952 36.9713 14.4625 37.4152 15.0454" stroke="#EB1000" stroke-width="3" stroke-linecap="round" stroke-linejoin="round"></path><path d="M33.6074 25.9358V28.0489" stroke="#EB1000" stroke-width="3" stroke-linecap="round" stroke-linejoin="round"></path><path d="M33.6074 11.1399V13.253" stroke="#EB1000" stroke-width="3" stroke-linecap="round" stroke-linejoin="round"></path><path d="M39.6637 5.21875H8.33625C5.59622 5.21875 3.375 7.43997 3.375 10.18V30.2575C3.375 32.9974 5.59622 35.2188 8.33625 35.2188H39.6637C42.4037 35.2188 44.625 32.9974 44.625 30.2575V10.18C44.625 7.43997 42.4037 5.21875 39.6637 5.21875Z" stroke="#EB1000" stroke-width="3" stroke-linecap="round" stroke-linejoin="round"></path><path d="M24 35.2188V41.7812" stroke="#EB1000" stroke-width="3" stroke-linecap="round" stroke-linejoin="round"></path><path d="M14.625 41.7812H33.375" stroke="#EB1000" stroke-width="3" stroke-linecap="round" stroke-linejoin="round"></path><path d="M10.166 13.5417H21.4384" stroke="#EB1000" stroke-width="3" stroke-linecap="round" stroke-linejoin="round"></path><path d="M10.166 20.7155H21.4384" stroke="#EB1000" stroke-width="3" stroke-linecap="round" stroke-linejoin="round"></path><path d="M10.166 27.8896H15.8023" stroke="#EB1000" stroke-width="3" stroke-linecap="round" stroke-linejoin="round"></path><!--]--></g></svg>