<svg xmlns="http://www.w3.org/2000/svg" viewBox="0 0 24 24" aria-labelledby="IconBase-title-v-0-0-0-0-0-0-5-0-0-0-3-0-5-0-0-0-0-0-0-0 IconBase-description-v-0-0-0-0-0-0-5-0-0-0-3-0-5-0-0-0-0-0-0-0" role="graphics-symbol img" width="100%" height="100%" class="Projects-userIcon-X1Q" data-iid="v-0-0-0-0-0-0-5-0-0-0-3-0-5-0-0-0-0-0-0-0"><title id="IconBase-title-v-0-0-0-0-0-0-5-0-0-0-3-0-5-0-0-0-0-0-0-0">user alt</title><desc id="IconBase-description-v-0-0-0-0-0-0-5-0-0-0-3-0-5-0-0-0-0-0-0-0">user alt</desc><g><!--[--><svg xmlns="http://www.w3.org/2000/svg" width="24" height="24" viewBox="0 0 24 24" fill="none"><g clip-path="url(#clip0_1255_7684)"><path d="M12 13.5919C14.1978 13.5919 15.9794 11.8102 15.9794 9.6124C15.9794 7.4146 14.1978 5.63293 12 5.63293C9.80218 5.63293 8.02051 7.4146 8.02051 9.6124C8.02051 11.8102 9.80218 13.5919 12 13.5919Z" stroke="#0057FF" stroke-width="2" stroke-linecap="round" stroke-linejoin="round"></path><path d="M5.20312 19.7998C5.91344 18.6338 6.91176 17.6701 8.1021 17.0016C9.29244 16.3328 10.6348 15.9816 12.0001 15.9816C13.3653 15.9816 14.7077 16.3328 15.898 17.0016C17.0884 17.6701 18.0866 18.6338 18.797 19.7998" stroke="#0057FF" stroke-width="2" stroke-linecap="round" stroke-linejoin="round"></path><path d="M11.9999 22.3467C17.7143 22.3467 22.3465 17.7144 22.3465 12C22.3465 6.28578 17.7143 1.65344 11.9999 1.65344C6.28566 1.65344 1.65332 6.28578 1.65332 12C1.65332 17.7144 6.28566 22.3467 11.9999 22.3467Z" stroke="#0057FF" stroke-width="2" stroke-linecap="round" stroke-linejoin="round"></path></g><defs><clipPath id="clip0_1255_7684"><rect width="24" height="24" fill="white"></rect></clipPath></defs></svg><!--]--></g></svg>