<svg id="Adobe_Corporate_Horizontal_Lockup_Black_HEX" xmlns="http://www.w3.org/2000/svg" width="59.968" height="15.61" viewBox="0 0 59.968 15.61">
  <path id="Path_39350" data-name="Path 39350" d="M179.681,34.612l-.646,1.994a.145.145,0,0,1-.148.107h-1.564c-.094,0-.122-.053-.107-.132l2.695-7.775a2.511,2.511,0,0,0,.132-.822.089.089,0,0,1,.081-.094h2.156c.067,0,.094.013.108.081l3.058,8.624c.026.067.013.12-.067.12H183.63a.132.132,0,0,1-.149-.094l-.687-2.008Zm2.614-1.685c-.264-.889-.808-2.52-1.057-3.477h-.013c-.215.9-.7,2.379-1.057,3.477Z" transform="translate(-153.791 -24.204)"/>
  <path id="Path_39351" data-name="Path 39351" d="M241.14,28.632a3.572,3.572,0,0,1,3.908-3.539c.107,0,.242.015.444.028V22.46a.085.085,0,0,1,.094-.094h1.7c.067,0,.081.026.081.081v7.964a7.5,7.5,0,0,0,.054.983c0,.067-.013.094-.094.122a6.789,6.789,0,0,1-2.655.538A3.224,3.224,0,0,1,241.14,28.632Zm4.352-1.914a1.388,1.388,0,0,0-.5-.067,1.8,1.8,0,0,0-1.927,1.886,1.686,1.686,0,0,0,1.792,1.914,1.9,1.9,0,0,0,.633-.081Z" transform="translate(-209.269 -19.41)"/>
  <path id="Path_39352" data-name="Path 39352" d="M303.013,46.41a3.326,3.326,0,1,1-6.643.041,3.3,3.3,0,0,1,3.354-3.491A3.21,3.21,0,0,1,303.013,46.41Zm-4.743.015c0,1.19.552,1.94,1.454,1.94.782,0,1.375-.674,1.375-1.914,0-1.057-.431-1.927-1.454-1.927C298.863,44.524,298.269,45.224,298.269,46.424Z" transform="translate(-257.2 -37.282)"/>
  <path id="Path_39353" data-name="Path 39353" d="M356.657,22.37c.108,0,.132.013.132.108v2.762a4.3,4.3,0,0,1,1.134-.144,3.084,3.084,0,0,1,3.234,3.208,3.741,3.741,0,0,1-4.042,3.759A7.059,7.059,0,0,1,355,31.754a.156.156,0,0,1-.081-.132V22.464c0-.067.026-.094.094-.094Zm.925,4.311a2.708,2.708,0,0,0-.793.108v3.652a2.063,2.063,0,0,0,.5.054,1.855,1.855,0,0,0,1.953-2.022,1.579,1.579,0,0,0-1.655-1.791Z" transform="translate(-308.011 -19.413)"/>
  <path id="Path_39354" data-name="Path 39354" d="M409.442,46.939c.067.768.607,1.4,1.927,1.4a4.174,4.174,0,0,0,1.657-.309c.041-.028.081-.013.081.067v1.279c0,.1-.026.132-.094.163a4.527,4.527,0,0,1-2.062.4,3.159,3.159,0,0,1-3.422-3.409,3.284,3.284,0,0,1,3.261-3.558,2.747,2.747,0,0,1,2.843,2.908,4.278,4.278,0,0,1-.067.9.114.114,0,0,1-.107.107,12.292,12.292,0,0,1-1.389.054Zm1.753-1.307a4.484,4.484,0,0,0,.674-.026v-.1a1.1,1.1,0,0,0-1.146-1.057,1.277,1.277,0,0,0-1.294,1.19Z" transform="translate(-353.668 -37.291)"/>
  <path id="Path_39355" data-name="Path 39355" d="M84.13,0h6.52V15.61Z" transform="translate(-73.011)"/>
  <path id="Path_39356" data-name="Path 39356" d="M6.525,0H0V15.61Z"/>
  <path id="Path_39357" data-name="Path 39357" d="M48.031,43.53l4.154,9.857H49.462L48.22,50.248H45.18Z" transform="translate(-39.209 -37.777)"/>
</svg>
