<svg id="Group_67265" data-name="Group 67265" xmlns="http://www.w3.org/2000/svg" width="82" height="16" viewBox="0 0 82 16">
  <path id="path" d="M7.017,0A8.12,8.12,0,0,1,8.965.2,4.348,4.348,0,0,1,10.47.844a2.97,2.97,0,0,1,.967,1.194,4.51,4.51,0,0,1,.345,1.849,3.548,3.548,0,0,1-.511,1.98,3.76,3.76,0,0,1-1.519,1.3A3.627,3.627,0,0,1,11.8,8.619a4.516,4.516,0,0,1,.677,2.519,4.652,4.652,0,0,1-.428,2.053,4,4,0,0,1-1.174,1.427,5.18,5.18,0,0,1-1.7.815,7.238,7.238,0,0,1-1.948.262H0V0ZM6.6,6.348a2.275,2.275,0,0,0,1.437-.437,1.709,1.709,0,0,0,.566-1.427,1.928,1.928,0,0,0-.18-.9,1.306,1.306,0,0,0-.5-.539,1.875,1.875,0,0,0-.718-.277,4.038,4.038,0,0,0-.843-.073H3.274V6.362H6.6Zm.18,6.682a3.847,3.847,0,0,0,.925-.1,2.22,2.22,0,0,0,.774-.335,1.663,1.663,0,0,0,.539-.626,2.218,2.218,0,0,0,.193-1.019,2.1,2.1,0,0,0-.649-1.732,2.639,2.639,0,0,0-1.713-.51H3.274V13.03Z" fill="#191919"/>
  <path id="path-2" data-name="path" d="M101,36.468a2.585,2.585,0,0,0,1.92.684,2.528,2.528,0,0,0,1.547-.48,1.978,1.978,0,0,0,.787-1h2.611a5.142,5.142,0,0,1-1.92,2.926,5.339,5.339,0,0,1-3.122.888,5.9,5.9,0,0,1-2.307-.437,4.927,4.927,0,0,1-1.74-1.223,5.705,5.705,0,0,1-1.091-1.893,7.123,7.123,0,0,1-.387-2.417,6.989,6.989,0,0,1,.4-2.373,5.354,5.354,0,0,1,5.139-3.64,4.921,4.921,0,0,1,2.4.568,5.038,5.038,0,0,1,1.685,1.5,6.262,6.262,0,0,1,.953,2.155,8.491,8.491,0,0,1,.207,2.533h-7.777A3.094,3.094,0,0,0,101,36.468Zm3.412-5.969a2.154,2.154,0,0,0-1.671-.626,2.36,2.36,0,0,0-1.174.262,2.514,2.514,0,0,0-.746.626,2.409,2.409,0,0,0-.4.8,3.316,3.316,0,0,0-.138.742H105.1A3.267,3.267,0,0,0,104.414,30.5Z" transform="translate(-83.86 -23.496)" fill="#191919"/>
  <path id="path-3" data-name="path" d="M187.156,0V5.925h.069A3.45,3.45,0,0,1,188.662,4.5a3.671,3.671,0,0,1,1.713-.451,4.979,4.979,0,0,1,1.948.335,2.9,2.9,0,0,1,1.2.946,3.664,3.664,0,0,1,.608,1.47,10.284,10.284,0,0,1,.18,1.922v6.988h-2.97V9.274a4.162,4.162,0,0,0-.414-2.1,1.57,1.57,0,0,0-1.478-.684,2.012,2.012,0,0,0-1.74.757,4.425,4.425,0,0,0-.539,2.49v5.954H184.2V0Z" transform="translate(-158.755)" fill="#191919"/>
  <path id="path-4" data-name="path" d="M267.27,29.58a3.636,3.636,0,0,1,1.16-1.165,4.823,4.823,0,0,1,1.589-.626A8.239,8.239,0,0,1,271.8,27.6a12.649,12.649,0,0,1,1.644.116,4.687,4.687,0,0,1,1.519.48,3,3,0,0,1,1.119.99,2.845,2.845,0,0,1,.442,1.66v5.925a12.55,12.55,0,0,0,.083,1.47,2.515,2.515,0,0,0,.359,1.063l-3.025-.015a1.531,1.531,0,0,1-.193-.539,3.559,3.559,0,0,1-.069-.553,3.787,3.787,0,0,1-1.671,1.077,6.362,6.362,0,0,1-1.962.306,5.055,5.055,0,0,1-1.437-.2,3.213,3.213,0,0,1-1.16-.611,2.693,2.693,0,0,1-.774-1.063,3.893,3.893,0,0,1-.276-1.529,3.448,3.448,0,0,1,.332-1.6,2.635,2.635,0,0,1,.829-1A3.885,3.885,0,0,1,268.734,33a8.654,8.654,0,0,1,1.326-.291c.442-.073.884-.131,1.312-.175a7.531,7.531,0,0,0,1.147-.2,1.863,1.863,0,0,0,.787-.393.879.879,0,0,0,.276-.742,1.624,1.624,0,0,0-.166-.8,1.2,1.2,0,0,0-.414-.466,1.4,1.4,0,0,0-.594-.218,5.761,5.761,0,0,0-.732-.058,2.15,2.15,0,0,0-1.367.393,1.828,1.828,0,0,0-.58,1.325h-2.97A3.466,3.466,0,0,1,267.27,29.58Zm5.829,4.426a5.941,5.941,0,0,1-.594.16c-.221.044-.442.073-.677.116s-.47.058-.7.1a4.757,4.757,0,0,0-.649.175,1.845,1.845,0,0,0-.553.291,1.371,1.371,0,0,0-.387.466,1.608,1.608,0,0,0-.152.728,1.523,1.523,0,0,0,.152.7,1.121,1.121,0,0,0,.4.451,1.492,1.492,0,0,0,.58.233,3.592,3.592,0,0,0,.691.058,2.519,2.519,0,0,0,1.354-.306,1.967,1.967,0,0,0,.7-.743,2.4,2.4,0,0,0,.276-.859,5.051,5.051,0,0,0,.055-.713V33.7A1.372,1.372,0,0,1,273.1,34.006Z" transform="translate(-229.601 -23.582)" fill="#191919"/>
  <path id="path-5" data-name="path" d="M354.59,28.091v1.587h.069a3.359,3.359,0,0,1,1.464-1.427,3.986,3.986,0,0,1,1.837-.451,4.884,4.884,0,0,1,1.948.335,2.9,2.9,0,0,1,1.2.946,3.882,3.882,0,0,1,.622,1.47,9.232,9.232,0,0,1,.18,1.922v6.988h-2.984V33.027a4.162,4.162,0,0,0-.414-2.1,1.614,1.614,0,0,0-1.478-.757,2.046,2.046,0,0,0-1.754.83,4.424,4.424,0,0,0-.539,2.49v5.955H351.8V28.091Z" transform="translate(-303.205 -23.753)" fill="#191919"/>
  <path id="path-6" data-name="path" d="M438.4,29.688a2.061,2.061,0,0,0-1.188.335,2.908,2.908,0,0,0-.787.874,3.814,3.814,0,0,0-.428,1.194,6.863,6.863,0,0,0-.124,1.3,6.528,6.528,0,0,0,.124,1.252,3.755,3.755,0,0,0,.414,1.15,2.558,2.558,0,0,0,.76.844,2,2,0,0,0,1.16.335,2.1,2.1,0,0,0,1.644-.626,3.008,3.008,0,0,0,.718-1.689h2.859a4.89,4.89,0,0,1-5.194,4.644,5.537,5.537,0,0,1-2.224-.437,4.993,4.993,0,0,1-1.727-1.194,5.458,5.458,0,0,1-1.105-1.834,6.761,6.761,0,0,1-.4-2.344,7.886,7.886,0,0,1,.373-2.46,5.565,5.565,0,0,1,1.077-1.965,4.98,4.98,0,0,1,1.74-1.3,5.648,5.648,0,0,1,2.335-.466,6.549,6.549,0,0,1,1.851.262,4.73,4.73,0,0,1,1.588.8,4.369,4.369,0,0,1,1.146,1.339,4.467,4.467,0,0,1,.5,1.893h-2.9A2.053,2.053,0,0,0,438.4,29.688Z" transform="translate(-373.103 -23.325)" fill="#191919"/>
  <rect id="rectangle" width="6.036" height="1.543" transform="translate(15.802 1.048)" fill="#191919"/>
  <path id="path-7" data-name="path" d="M519.274,36.468a2.654,2.654,0,0,0,1.948.684,2.556,2.556,0,0,0,1.547-.48,1.979,1.979,0,0,0,.787-1h2.611a5.211,5.211,0,0,1-1.92,2.926,5.339,5.339,0,0,1-3.122.888,5.85,5.85,0,0,1-2.307-.437,4.928,4.928,0,0,1-1.74-1.223,5.478,5.478,0,0,1-1.091-1.893,7.12,7.12,0,0,1-.387-2.417,6.991,6.991,0,0,1,.4-2.373,5.631,5.631,0,0,1,1.133-1.907,5.309,5.309,0,0,1,1.74-1.267,5.4,5.4,0,0,1,2.252-.466,4.83,4.83,0,0,1,2.39.568,4.91,4.91,0,0,1,1.685,1.5,6.257,6.257,0,0,1,.953,2.155,8.485,8.485,0,0,1,.207,2.533h-7.818A3.305,3.305,0,0,0,519.274,36.468Zm3.44-5.969a2.174,2.174,0,0,0-1.671-.626,2.409,2.409,0,0,0-1.962.888,2.407,2.407,0,0,0-.4.8,4.349,4.349,0,0,0-.138.742H523.4A3.168,3.168,0,0,0,522.714,30.5Z" transform="translate(-444.379 -23.496)" fill="#191919"/>
</svg>
